<svg id="svg" version="1.1" xmlns="http://www.w3.org/2000/svg" xmlns:xlink="http://www.w3.org/1999/xlink" width="400" height="400" viewBox="0, 0, 400,400"><g id="svgg"><path id="path0" d="M34.800 191.000 L 34.800 261.600 131.800 261.600 L 228.800 261.600 228.800 191.000 L 228.800 120.400 131.800 120.400 L 34.800 120.400 34.800 191.000 M323.600 256.075 C 319.586 257.764,318.265 258.877,316.899 261.718 C 314.946 265.778,314.946 267.822,316.899 271.882 C 318.280 274.755,319.699 275.934,323.719 277.550 C 326.906 278.831,331.753 277.410,334.770 274.310 C 335.812 273.239,337.200 270.426,337.200 269.386 C 337.200 268.870,337.380 268.336,337.600 268.200 C 337.820 268.064,338.000 267.434,338.000 266.800 C 338.000 266.166,337.820 265.536,337.600 265.400 C 337.380 265.264,337.200 264.730,337.200 264.214 C 337.200 263.174,335.812 260.361,334.770 259.290 C 333.287 257.766,332.402 257.224,329.481 256.050 C 328.102 255.495,324.945 255.509,323.600 256.075 " stroke="none" fill="#fbd9a0" fill-rule="evenodd"></path><path id="path1" d="M346.101 45.300 C 345.883 45.575,345.497 46.445,345.243 47.234 C 344.989 48.023,344.234 49.193,343.565 49.834 L 342.348 51.000 304.206 51.200 L 266.064 51.400 265.064 52.340 C 263.399 53.904,263.168 55.030,263.288 61.011 L 263.400 66.600 325.700 66.701 L 388.000 66.803 388.000 60.370 L 388.000 53.938 386.831 52.769 L 385.662 51.600 376.490 51.600 C 364.156 51.600,363.120 51.228,361.192 46.100 L 360.703 44.800 353.600 44.800 C 348.397 44.800,346.392 44.934,346.101 45.300 M263.384 78.899 C 263.278 79.174,263.238 87.860,263.296 98.200 L 263.400 117.000 311.000 117.093 C 337.180 117.145,365.260 117.055,373.400 116.893 L 388.200 116.600 388.200 97.600 L 388.200 78.600 325.888 78.499 C 276.249 78.418,263.537 78.499,263.384 78.899 M388.000 97.552 L 388.000 115.905 367.100 116.177 C 355.605 116.327,327.660 116.394,305.000 116.325 L 263.800 116.200 263.696 97.700 L 263.592 79.200 325.796 79.200 L 388.000 79.200 388.000 97.552 M278.000 91.869 C 272.838 94.097,272.531 100.843,277.485 103.191 C 279.719 104.250,373.229 104.500,375.732 103.454 C 379.656 101.814,380.543 96.107,377.367 92.931 C 376.855 92.419,376.169 92.000,375.842 92.000 C 375.515 92.000,375.136 91.820,375.000 91.600 C 374.549 90.870,279.706 91.133,278.000 91.869 M375.904 92.798 C 379.588 95.044,379.631 100.392,375.981 102.547 C 374.133 103.639,278.689 103.556,277.200 102.462 C 273.407 99.674,273.615 94.707,277.608 92.701 C 279.923 91.537,373.989 91.630,375.904 92.798 M12.262 97.931 C 11.320 98.973,11.230 282.887,12.171 283.829 C 12.647 284.304,15.361 284.400,28.376 284.400 C 43.257 284.400,44.092 284.439,45.738 285.213 C 47.534 286.057,49.200 288.327,49.200 289.931 C 49.200 290.383,49.355 290.849,49.544 290.966 C 50.169 291.351,49.308 287.936,48.509 286.857 C 46.335 283.921,46.869 284.000,29.112 284.000 C 15.805 284.000,13.048 283.905,12.571 283.429 C 12.080 282.937,12.000 270.055,12.000 190.838 L 12.000 98.818 12.966 98.186 C 14.333 97.290,249.458 97.452,250.539 98.349 C 251.621 99.247,251.551 282.358,250.469 283.338 C 249.792 283.950,242.916 284.000,159.653 284.000 C 59.337 284.000,67.727 283.777,65.817 286.495 C 65.106 287.505,64.237 290.371,64.547 290.681 C 64.657 290.791,64.944 290.151,65.184 289.259 C 65.776 287.060,67.233 285.437,69.123 284.870 C 70.306 284.516,92.862 284.400,160.666 284.400 C 230.113 284.400,250.750 284.290,251.120 283.920 C 252.077 282.963,251.786 98.128,250.826 97.614 C 249.219 96.754,13.043 97.068,12.262 97.931 M26.259 108.401 C 24.217 109.421,23.731 109.854,23.008 111.304 C 22.470 112.382,22.400 121.596,22.400 191.272 L 22.400 270.021 24.189 271.811 L 25.979 273.600 131.789 273.600 L 237.600 273.600 239.137 272.063 C 240.340 270.860,240.731 270.109,240.937 268.607 C 241.275 266.144,241.277 116.098,240.939 113.288 C 240.669 111.035,238.812 108.400,237.495 108.400 C 237.139 108.400,236.736 108.220,236.600 108.000 C 236.057 107.121,28.029 107.518,26.259 108.401 M237.487 109.068 C 240.685 110.586,240.397 102.495,240.399 190.720 C 240.400 277.471,240.607 270.754,237.881 272.416 C 235.845 273.658,27.733 273.644,25.696 272.402 C 22.508 270.458,22.803 278.777,22.801 190.759 L 22.800 112.518 23.708 111.159 C 25.731 108.131,15.156 108.401,131.740 108.401 C 228.378 108.400,236.183 108.449,237.487 109.068 M34.400 119.899 C 34.400 120.065,78.095 120.200,131.500 120.200 L 228.600 120.200 228.701 190.899 L 228.802 261.598 131.701 261.700 L 34.600 261.802 131.800 261.801 L 229.000 261.800 229.000 190.800 L 229.000 119.800 131.700 119.699 C 78.185 119.644,34.400 119.734,34.400 119.899 M34.196 191.000 C 34.196 229.720,34.243 245.501,34.300 226.068 C 34.357 206.636,34.357 174.956,34.300 155.668 C 34.243 136.381,34.196 152.280,34.196 191.000 M263.384 128.899 C 263.278 129.174,263.238 137.860,263.296 148.200 L 263.400 167.000 325.800 167.000 L 388.200 167.000 388.200 147.800 L 388.200 128.600 325.888 128.499 C 276.249 128.418,263.537 128.499,263.384 128.899 M372.935 129.065 L 388.000 129.330 388.000 147.865 L 388.000 166.400 325.800 166.400 L 263.600 166.400 263.600 147.867 C 263.600 137.673,263.720 129.213,263.867 129.067 C 264.212 128.721,353.288 128.719,372.935 129.065 M322.600 141.595 C 272.767 141.823,276.987 141.562,274.960 144.544 C 272.727 147.830,274.320 151.960,278.370 153.389 C 280.880 154.275,373.143 154.318,375.251 153.435 C 382.929 150.219,379.316 141.023,370.481 141.295 C 368.787 141.347,347.240 141.482,322.600 141.595 M376.256 143.032 C 379.687 145.594,379.514 150.201,375.904 152.402 C 373.855 153.651,279.345 153.651,277.296 152.402 C 273.140 149.868,273.726 143.776,278.257 142.409 C 281.126 141.543,375.062 142.141,376.256 143.032 M263.900 178.832 C 263.237 179.218,263.200 183.605,263.200 262.040 C 263.200 351.222,263.075 345.877,265.201 347.801 C 266.206 348.710,325.405 349.166,366.379 348.580 L 385.759 348.303 386.879 347.182 L 388.000 346.062 388.000 262.496 L 388.000 178.930 372.100 178.666 C 346.354 178.237,264.705 178.363,263.900 178.832 M332.200 244.085 C 345.040 246.853,353.622 262.604,348.717 274.400 C 342.378 289.648,325.432 295.036,312.938 285.775 C 292.306 270.482,307.011 238.653,332.200 244.085 M323.598 255.318 C 313.751 258.096,311.648 271.000,320.130 276.598 C 331.957 284.403,344.896 268.296,334.772 258.373 C 331.830 255.489,327.342 254.262,323.598 255.318 M330.406 256.097 C 331.283 256.371,332.000 256.731,332.000 256.897 C 332.000 257.064,332.235 257.200,332.522 257.200 C 333.110 257.200,335.074 259.194,336.264 261.000 C 338.488 264.374,338.488 269.226,336.264 272.600 C 335.074 274.406,333.110 276.400,332.522 276.400 C 332.235 276.400,332.000 276.536,332.000 276.703 C 332.000 277.246,328.862 278.000,326.600 278.000 C 324.338 278.000,321.200 277.246,321.200 276.703 C 321.200 276.536,320.947 276.400,320.637 276.400 C 318.659 276.400,315.200 270.293,315.200 266.800 C 315.200 263.307,318.659 257.200,320.637 257.200 C 320.947 257.200,321.200 257.057,321.200 256.883 C 321.200 255.803,327.690 255.250,330.406 256.097 M118.223 296.495 C 117.894 297.557,117.618 319.825,117.928 320.305 C 118.182 320.700,121.237 320.788,131.827 320.705 L 145.400 320.600 145.400 308.400 L 145.400 296.200 131.889 296.095 C 121.281 296.012,118.345 296.098,118.223 296.495 M329.929 306.141 L 331.400 307.612 331.513 317.706 C 331.614 326.746,331.551 327.943,330.913 329.172 C 328.722 333.387,322.351 333.253,320.555 328.953 C 319.862 327.295,319.755 309.899,320.427 308.126 C 321.935 304.145,326.895 303.109,329.929 306.141 M144.957 312.633 C 145.091 312.981,145.200 314.781,145.200 316.633 L 145.200 320.000 131.800 320.000 L 118.400 320.000 118.400 316.000 L 118.400 312.000 131.557 312.000 C 143.186 312.000,144.743 312.074,144.957 312.633 M79.800 332.690 C 72.350 334.583,72.470 346.372,79.960 348.389 C 83.033 349.217,183.135 348.745,184.688 347.896 C 190.500 344.719,190.759 337.477,185.200 333.581 L 183.800 332.600 132.200 332.543 C 103.820 332.512,80.240 332.578,79.800 332.690 M184.292 333.771 C 185.823 334.577,188.000 337.098,188.000 338.068 C 188.000 338.444,188.180 338.864,188.400 339.000 C 188.620 339.136,188.800 339.856,188.800 340.600 C 188.800 341.344,188.620 342.064,188.400 342.200 C 188.180 342.336,188.000 342.735,188.000 343.086 C 188.000 344.160,186.047 346.359,184.277 347.278 L 182.600 348.148 132.086 348.323 C 85.776 348.484,81.428 348.443,79.838 347.836 C 77.875 347.086,75.200 344.436,75.200 343.241 C 75.200 342.804,75.020 342.336,74.800 342.200 C 72.677 340.888,76.354 334.497,79.920 333.305 C 82.530 332.432,182.595 332.879,184.292 333.771 " stroke="none" fill="#5c6b73" fill-rule="evenodd"></path><path id="path2" d="M263.696 97.700 L 263.800 116.200 305.000 116.325 C 327.660 116.394,355.605 116.327,367.100 116.177 L 388.000 115.905 388.000 97.552 L 388.000 79.200 325.796 79.200 L 263.592 79.200 263.696 97.700 M375.000 91.600 C 375.136 91.820,375.515 92.000,375.842 92.000 C 376.169 92.000,376.855 92.419,377.367 92.931 C 380.543 96.107,379.656 101.814,375.732 103.454 C 373.229 104.500,279.719 104.250,277.485 103.191 C 272.531 100.843,272.838 94.097,278.000 91.869 C 279.706 91.133,374.549 90.870,375.000 91.600 M12.900 98.206 L 12.000 98.845 12.000 190.851 C 12.000 270.056,12.080 282.937,12.571 283.429 C 13.048 283.905,15.805 284.000,29.112 284.000 C 47.827 284.000,48.715 284.238,49.565 289.474 L 49.813 291.000 57.070 291.109 L 64.327 291.218 64.587 289.675 C 64.965 287.440,66.142 285.748,67.968 284.816 C 69.565 284.002,69.763 284.000,159.722 284.000 C 246.554 284.000,249.900 283.973,250.538 283.269 C 251.559 282.140,251.560 99.197,250.539 98.349 C 249.450 97.446,14.169 97.304,12.900 98.206 M236.600 108.000 C 236.736 108.220,237.139 108.400,237.495 108.400 C 238.812 108.400,240.669 111.035,240.939 113.288 C 241.277 116.098,241.275 266.144,240.937 268.607 C 240.731 270.109,240.340 270.860,239.137 272.063 L 237.600 273.600 131.789 273.600 L 25.979 273.600 24.189 271.811 L 22.400 270.021 22.400 191.272 C 22.400 107.262,22.316 111.164,24.167 109.628 C 26.770 107.467,17.865 107.633,132.076 107.616 C 201.180 107.605,236.436 107.735,236.600 108.000 M34.662 120.300 C 34.494 120.571,100.161 120.570,193.600 120.298 C 212.850 120.241,185.006 120.152,131.724 120.098 C 78.442 120.044,34.764 120.135,34.662 120.300 M263.867 129.067 C 263.720 129.213,263.600 137.673,263.600 147.867 L 263.600 166.400 325.800 166.400 L 388.000 166.400 388.000 147.865 L 388.000 129.330 372.935 129.065 C 353.288 128.719,264.212 128.721,263.867 129.067 M368.000 135.200 L 368.000 141.200 370.781 141.200 C 378.179 141.200,381.845 147.101,377.450 151.935 C 375.500 154.080,377.524 153.992,327.251 154.098 L 280.600 154.196 324.300 154.300 L 368.000 154.404 368.000 160.202 L 368.000 166.000 316.000 166.000 L 264.000 166.000 264.000 147.600 L 264.000 129.200 316.000 129.200 L 368.000 129.200 368.000 135.200 M278.262 141.500 C 278.095 141.769,322.916 141.765,355.000 141.493 C 361.820 141.436,347.386 141.346,322.924 141.294 C 298.462 141.242,278.364 141.335,278.262 141.500 M275.402 151.941 C 276.346 153.057,278.074 154.011,279.080 153.972 C 279.476 153.956,279.088 153.683,278.218 153.364 C 277.348 153.046,276.179 152.383,275.621 151.892 L 274.606 151.000 275.402 151.941 M316.947 260.808 C 316.362 261.693,315.995 262.528,316.132 262.665 C 316.269 262.802,316.505 262.574,316.656 262.157 C 316.807 261.741,317.273 260.905,317.692 260.300 C 318.112 259.695,318.355 259.200,318.233 259.200 C 318.111 259.200,317.532 259.924,316.947 260.808 M315.450 264.450 C 315.309 265.153,315.269 265.802,315.359 265.892 C 315.450 265.983,315.648 265.491,315.800 264.800 C 315.952 264.109,315.993 263.459,315.891 263.358 C 315.789 263.256,315.591 263.747,315.450 264.450 M337.228 264.276 C 337.213 264.758,337.380 265.264,337.600 265.400 C 338.073 265.692,338.073 265.301,337.600 264.200 C 337.269 263.429,337.255 263.431,337.228 264.276 M315.268 268.000 C 315.288 269.039,315.918 270.746,315.932 269.800 C 315.938 269.360,315.789 268.640,315.600 268.200 C 315.389 267.710,315.261 267.632,315.268 268.000 M337.467 268.267 C 337.320 268.413,337.211 268.908,337.225 269.367 C 337.249 270.133,337.282 270.123,337.634 269.242 C 338.026 268.263,337.944 267.789,337.467 268.267 M316.000 271.084 C 316.000 271.504,317.957 274.400,318.242 274.400 C 318.359 274.400,318.082 273.877,317.627 273.238 C 317.172 272.599,316.800 271.890,316.800 271.662 C 316.800 271.434,316.620 271.136,316.400 271.000 C 316.180 270.864,316.000 270.902,316.000 271.084 M118.400 316.000 L 118.400 320.000 131.800 320.000 L 145.200 320.000 145.200 316.633 C 145.200 311.495,146.687 312.000,131.557 312.000 L 118.400 312.000 118.400 316.000 M79.920 333.305 C 76.354 334.497,72.677 340.888,74.800 342.200 C 75.020 342.336,75.200 342.804,75.200 343.241 C 75.200 344.436,77.875 347.086,79.838 347.836 C 81.428 348.443,85.776 348.484,132.086 348.323 L 182.600 348.148 184.277 347.278 C 186.047 346.359,188.000 344.160,188.000 343.086 C 188.000 342.735,188.180 342.336,188.400 342.200 C 188.620 342.064,188.800 341.344,188.800 340.600 C 188.800 339.856,188.620 339.136,188.400 339.000 C 188.180 338.864,188.000 338.444,188.000 338.068 C 188.000 337.098,185.823 334.577,184.292 333.771 C 182.595 332.879,82.530 332.432,79.920 333.305 " stroke="none" fill="#8797a7" fill-rule="evenodd"></path><path id="path3" d="M264.400 39.200 C 264.400 39.420,263.680 39.600,262.800 39.600 C 261.920 39.600,261.200 39.780,261.200 40.000 C 261.200 40.220,260.840 40.400,260.400 40.400 C 259.960 40.400,259.600 40.580,259.600 40.800 C 259.600 41.020,259.330 41.200,259.000 41.200 C 258.670 41.200,258.400 41.358,258.400 41.551 C 258.400 41.745,257.898 42.111,257.285 42.365 C 256.672 42.619,255.828 43.281,255.411 43.837 C 254.994 44.393,254.236 45.332,253.727 45.924 C 253.218 46.516,252.801 47.225,252.800 47.500 C 252.800 47.775,252.620 48.000,252.400 48.000 C 252.180 48.000,252.000 48.540,252.000 49.200 C 252.000 49.860,251.820 50.400,251.600 50.400 C 251.340 50.400,251.200 56.400,251.200 67.600 L 251.200 84.800 130.600 84.800 C 50.467 84.800,10.000 84.934,10.000 85.200 C 10.000 85.420,9.460 85.600,8.800 85.600 C 8.140 85.600,7.600 85.780,7.600 86.000 C 7.600 86.220,7.280 86.400,6.888 86.400 C 6.497 86.400,5.917 86.760,5.600 87.200 C 5.283 87.640,4.769 88.000,4.458 88.000 C 3.796 88.000,2.001 89.972,2.000 90.700 C 2.000 90.975,1.820 91.200,1.600 91.200 C 1.380 91.200,1.200 91.455,1.200 91.767 C 1.200 92.078,0.975 92.408,0.700 92.500 C -0.208 92.803,-0.219 287.218,0.689 289.133 C 1.516 290.877,5.325 294.800,6.191 294.800 C 6.526 294.800,6.800 294.980,6.800 295.200 C 6.800 295.420,7.160 295.600,7.600 295.600 C 8.040 295.600,8.400 295.780,8.400 296.000 C 8.400 296.220,9.390 296.400,10.600 296.400 C 11.810 296.400,12.800 296.580,12.800 296.800 C 12.800 297.060,18.267 297.200,28.400 297.200 C 38.533 297.200,44.000 297.060,44.000 296.800 C 44.000 296.580,44.636 296.400,45.413 296.400 C 47.758 296.400,51.130 291.946,49.533 290.959 C 49.350 290.845,49.200 290.383,49.200 289.931 C 49.200 288.327,47.534 286.057,45.738 285.213 C 44.092 284.439,43.257 284.400,28.376 284.400 C 15.361 284.400,12.647 284.304,12.171 283.829 C 11.169 282.827,11.328 98.770,12.331 97.862 C 13.218 97.060,249.333 96.815,250.826 97.614 C 251.786 98.128,252.077 282.963,251.120 283.920 C 250.750 284.290,230.113 284.400,160.666 284.400 C 65.946 284.400,68.538 284.350,66.802 286.198 C 65.277 287.821,63.739 293.200,64.800 293.200 C 65.020 293.200,65.200 293.483,65.200 293.829 C 65.200 294.547,66.134 295.600,66.771 295.600 C 67.007 295.600,67.200 295.780,67.200 296.000 C 67.200 296.220,67.830 296.400,68.600 296.400 C 69.370 296.400,70.000 296.580,70.000 296.800 C 70.000 297.061,76.133 297.200,87.600 297.200 L 105.200 297.200 105.200 308.600 L 105.200 320.000 91.624 320.000 C 83.004 320.000,77.957 320.146,77.800 320.400 C 77.664 320.620,77.023 320.800,76.376 320.800 C 75.729 320.800,75.200 320.980,75.200 321.200 C 75.200 321.420,74.750 321.600,74.200 321.600 C 73.650 321.600,73.200 321.780,73.200 322.000 C 73.200 322.220,72.880 322.400,72.488 322.400 C 72.097 322.400,71.517 322.760,71.200 323.200 C 70.883 323.640,70.378 324.000,70.079 324.000 C 69.105 324.000,64.400 329.141,64.400 330.205 C 64.400 330.532,64.220 330.800,64.000 330.800 C 63.780 330.800,63.600 331.160,63.600 331.600 C 63.600 332.040,63.420 332.400,63.200 332.400 C 62.980 332.400,62.800 332.925,62.800 333.567 C 62.800 334.208,62.613 334.796,62.384 334.872 C 61.822 335.059,61.828 346.143,62.390 346.330 C 62.615 346.405,62.800 346.992,62.800 347.633 C 62.800 348.275,62.980 348.800,63.200 348.800 C 63.420 348.800,63.600 349.160,63.600 349.600 C 63.600 350.040,63.780 350.400,64.000 350.400 C 64.220 350.400,64.400 350.720,64.400 351.112 C 64.400 351.503,64.760 352.083,65.200 352.400 C 65.640 352.717,66.000 353.186,66.000 353.443 C 66.000 354.048,68.832 356.800,69.455 356.800 C 69.718 356.800,69.993 356.944,70.067 357.120 C 70.288 357.652,74.046 359.600,74.850 359.600 C 75.263 359.600,75.600 359.780,75.600 360.000 C 75.600 360.220,76.219 360.400,76.976 360.400 C 77.733 360.400,78.464 360.580,78.600 360.800 C 78.942 361.354,184.800 361.354,184.800 360.800 C 184.800 360.580,185.520 360.400,186.400 360.400 C 187.280 360.400,188.000 360.220,188.000 360.000 C 188.000 359.780,188.450 359.600,189.000 359.600 C 189.550 359.600,190.000 359.420,190.000 359.200 C 190.000 358.980,190.360 358.800,190.800 358.800 C 191.240 358.800,191.600 358.642,191.600 358.449 C 191.600 358.255,192.102 357.889,192.715 357.635 C 194.139 357.045,196.836 354.525,197.569 353.100 C 197.881 352.495,198.285 352.000,198.468 352.000 C 198.650 352.000,198.800 351.640,198.800 351.200 C 198.800 350.760,198.980 350.400,199.200 350.400 C 199.420 350.400,199.600 350.040,199.600 349.600 C 199.600 349.160,199.780 348.800,200.000 348.800 C 200.220 348.800,200.400 348.361,200.400 347.824 C 200.400 347.287,200.580 346.736,200.800 346.600 C 201.020 346.464,201.200 345.474,201.200 344.400 C 201.200 343.326,201.380 342.336,201.600 342.200 C 202.120 341.879,202.120 339.321,201.600 339.000 C 201.380 338.864,201.200 337.861,201.200 336.771 C 201.200 335.681,201.048 334.477,200.862 334.095 C 200.677 333.713,200.317 332.997,200.062 332.505 C 199.808 332.013,199.600 331.338,199.600 331.005 C 199.600 330.672,199.420 330.400,199.200 330.400 C 198.980 330.400,198.800 330.130,198.800 329.800 C 198.800 329.470,198.620 329.200,198.400 329.200 C 198.180 329.200,198.000 328.957,198.000 328.659 C 198.000 327.875,194.069 324.000,193.272 324.000 C 193.096 324.000,192.602 323.685,192.175 323.300 C 191.749 322.915,190.860 322.354,190.200 322.053 C 189.540 321.753,188.687 321.348,188.305 321.153 C 187.923 320.959,187.158 320.800,186.605 320.800 C 186.052 320.800,185.600 320.620,185.600 320.400 C 185.600 320.141,180.733 320.000,171.800 320.000 L 158.000 320.000 158.000 308.600 L 158.000 297.200 204.200 297.200 C 234.733 297.200,250.400 297.064,250.400 296.800 C 250.400 296.580,250.580 296.400,250.800 296.400 C 251.063 296.400,251.200 305.533,251.200 323.000 C 251.200 340.467,251.337 349.600,251.600 349.600 C 251.820 349.600,252.000 350.140,252.000 350.800 C 252.000 351.460,252.180 352.000,252.400 352.000 C 252.620 352.000,252.800 352.225,252.800 352.500 C 252.801 352.775,253.218 353.484,253.727 354.076 C 254.236 354.668,254.994 355.607,255.411 356.163 C 255.828 356.719,256.672 357.381,257.285 357.635 C 257.898 357.889,258.400 358.255,258.400 358.449 C 258.400 358.642,258.670 358.800,259.000 358.800 C 259.330 358.800,259.600 358.980,259.600 359.200 C 259.600 359.420,259.960 359.600,260.400 359.600 C 260.840 359.600,261.200 359.780,261.200 360.000 C 261.200 360.220,261.920 360.400,262.800 360.400 C 263.680 360.400,264.400 360.580,264.400 360.800 C 264.400 361.065,285.133 361.200,325.800 361.200 C 366.467 361.200,387.200 361.065,387.200 360.800 C 387.200 360.580,387.704 360.400,388.320 360.400 C 389.536 360.400,391.592 359.584,391.597 359.100 C 391.599 358.935,391.960 358.800,392.400 358.800 C 392.840 358.800,393.200 358.632,393.200 358.427 C 393.200 358.222,393.551 357.943,393.980 357.806 C 394.881 357.520,397.200 355.447,397.200 354.928 C 397.200 354.735,397.560 354.317,398.000 354.000 C 398.440 353.683,398.800 353.118,398.800 352.745 C 398.800 352.372,399.025 351.992,399.300 351.900 C 399.699 351.767,399.800 321.031,399.800 200.000 C 399.800 78.969,399.699 48.233,399.300 48.100 C 399.025 48.008,398.800 47.628,398.800 47.255 C 398.800 46.882,398.440 46.317,398.000 46.000 C 397.560 45.683,397.200 45.284,397.200 45.115 C 397.200 44.500,395.480 42.847,394.353 42.381 C 393.719 42.118,393.200 41.745,393.200 41.551 C 393.200 41.358,392.840 41.200,392.400 41.200 C 391.960 41.200,391.599 41.065,391.597 40.900 C 391.592 40.416,389.536 39.600,388.320 39.600 C 387.704 39.600,387.200 39.420,387.200 39.200 C 387.200 38.653,365.338 38.653,365.000 39.200 C 364.864 39.420,364.395 39.600,363.958 39.600 C 363.017 39.600,361.200 41.301,361.200 42.182 C 361.200 42.522,361.000 42.800,360.755 42.800 C 359.705 42.800,361.417 47.763,363.029 49.390 C 364.968 51.349,366.508 51.600,376.577 51.600 L 385.662 51.600 386.831 52.769 L 388.000 53.938 388.000 60.370 L 388.000 66.803 325.700 66.701 L 263.400 66.600 263.288 61.011 C 263.168 55.030,263.399 53.904,265.064 52.340 L 266.064 51.400 304.206 51.200 L 342.348 51.000 343.565 49.834 C 344.234 49.193,344.987 48.023,345.239 47.234 C 345.491 46.445,345.855 45.629,346.048 45.420 C 346.532 44.898,346.493 42.800,346.000 42.800 C 345.780 42.800,345.600 42.522,345.600 42.182 C 345.600 41.210,343.741 39.600,342.618 39.600 C 342.058 39.600,341.600 39.420,341.600 39.200 C 341.600 38.936,328.467 38.800,303.000 38.800 C 277.533 38.800,264.400 38.936,264.400 39.200 M388.200 97.600 L 388.200 116.600 373.400 116.893 C 365.260 117.055,337.180 117.145,311.000 117.093 L 263.400 117.000 263.296 98.200 C 263.238 87.860,263.278 79.174,263.384 78.899 C 263.537 78.499,276.249 78.418,325.888 78.499 L 388.200 78.600 388.200 97.600 M277.608 92.701 C 273.615 94.707,273.407 99.674,277.200 102.462 C 278.689 103.556,374.133 103.639,375.981 102.547 C 379.631 100.392,379.588 95.044,375.904 92.798 C 373.989 91.630,279.923 91.537,277.608 92.701 M26.008 109.101 C 25.242 109.485,24.207 110.412,23.708 111.159 L 22.800 112.518 22.801 190.759 C 22.803 278.777,22.508 270.458,25.696 272.402 C 27.733 273.644,235.845 273.658,237.881 272.416 C 240.607 270.754,240.400 277.471,240.399 190.720 C 240.397 102.495,240.685 110.586,237.487 109.068 C 235.257 108.010,28.116 108.042,26.008 109.101 M229.000 190.800 L 229.000 261.800 131.824 261.901 C 54.347 261.981,34.584 261.900,34.330 261.501 C 33.964 260.924,33.887 121.861,34.252 120.499 L 34.494 119.598 131.747 119.699 L 229.000 119.800 229.000 190.800 M388.200 147.800 L 388.200 167.000 325.800 167.000 L 263.400 167.000 263.296 148.200 C 263.238 137.860,263.278 129.174,263.384 128.899 C 263.537 128.499,276.249 128.418,325.888 128.499 L 388.200 128.600 388.200 147.800 M278.257 142.409 C 273.726 143.776,273.140 149.868,277.296 152.402 C 279.345 153.651,373.855 153.651,375.904 152.402 C 379.514 150.201,379.687 145.594,376.256 143.032 C 375.062 142.141,281.126 141.543,278.257 142.409 M372.100 178.666 L 388.000 178.930 388.000 262.496 L 388.000 346.062 386.879 347.182 L 385.759 348.303 366.379 348.580 C 325.405 349.166,266.206 348.710,265.201 347.801 C 263.075 345.877,263.200 351.222,263.200 262.040 C 263.200 183.605,263.237 179.218,263.900 178.832 C 264.705 178.363,346.354 178.237,372.100 178.666 M324.800 243.476 C 305.635 245.076,296.204 268.355,309.085 282.269 C 321.537 295.721,341.501 291.757,348.717 274.400 C 354.837 259.682,341.241 242.104,324.800 243.476 M331.311 255.962 C 332.290 256.382,333.847 257.466,334.772 258.373 C 344.896 268.296,331.957 284.403,320.130 276.598 C 308.235 268.748,318.206 250.345,331.311 255.962 M145.400 308.400 L 145.400 320.600 131.827 320.705 C 121.237 320.788,118.182 320.700,117.928 320.305 C 117.618 319.825,117.894 297.557,118.223 296.495 C 118.345 296.098,121.281 296.012,131.889 296.095 L 145.400 296.200 145.400 308.400 M323.400 304.760 C 320.422 306.073,320.000 307.769,320.000 318.439 C 320.000 330.408,320.764 332.200,325.871 332.200 C 330.987 332.200,331.656 330.484,331.513 317.706 L 331.400 307.612 329.929 306.141 C 328.369 304.583,325.283 303.930,323.400 304.760 M185.200 333.581 C 190.759 337.477,190.500 344.719,184.688 347.896 C 183.135 348.745,83.033 349.217,79.960 348.389 C 73.383 346.618,72.074 337.734,77.800 333.732 C 79.649 332.440,77.637 332.484,132.200 332.543 L 183.800 332.600 185.200 333.581 " stroke="none" fill="#040404" fill-rule="evenodd"></path><path id="path4" d="M34.596 191.000 C 34.596 229.720,34.643 245.501,34.700 226.068 C 34.757 206.636,34.757 174.956,34.700 155.668 C 34.643 136.381,34.596 152.280,34.596 191.000 M264.000 147.600 L 264.000 166.000 316.000 166.000 L 368.000 166.000 368.000 160.212 L 368.000 154.423 323.300 154.312 C 273.497 154.187,277.269 154.410,275.021 151.463 C 273.952 150.062,273.462 144.800,274.400 144.800 C 274.620 144.800,274.800 144.612,274.800 144.382 C 274.800 143.751,276.680 142.000,277.358 142.000 C 277.685 142.000,278.064 141.820,278.200 141.600 C 278.362 141.337,293.804 141.200,323.224 141.200 L 368.000 141.200 368.000 135.200 L 368.000 129.200 316.000 129.200 L 264.000 129.200 264.000 147.600 " stroke="none" fill="#9babbb" fill-rule="evenodd"></path></g></svg>